<svg width="660" height="160" viewBox="0 0 660 160" fill="none" xmlns="http://www.w3.org/2000/svg">
<path d="M135 80C135 107.625 112.625 130 85 130C57.375 130 35 107.625 35 80C35 52.375 57.375 30 85 30C112.625 30 135 52.375 135 80Z" fill="url(#paint0_linear)"/>
<path d="M75.8333 102.917C74.2083 102.917 74.5 102.292 73.9166 100.75L69.1666 85.0833L98.6666 66.6667L102.125 67.5833L99.2499 75.4167L75.8333 102.917Z" fill="#C8DAEA"/>
<path d="M75.8334 102.917C77.0834 102.917 77.625 102.333 78.3334 101.667C79.4167 100.625 93.3334 87.0833 93.3334 87.0833L84.7917 85L76.875 90L75.8334 102.5V102.917Z" fill="#A9C9DD"/>
<path d="M76.6666 90.1667L96.8333 105.042C99.1249 106.292 100.792 105.667 101.375 102.917L109.583 64.25C110.417 60.875 108.292 59.375 106.083 60.375L57.9167 78.9583C54.625 80.2917 54.6667 82.125 57.3333 82.9167L69.7083 86.7917L98.3333 68.75C99.6666 67.9167 100.917 68.375 99.9166 69.2917L76.6666 90.1667Z" fill="url(#paint1_linear)"/>
<rect x="1.5" y="1.5" width="657" height="157" rx="18.5" stroke="#39B6E4" stroke-width="3"/>
<path d="M211.094 25.3438V53.4395C211.094 58.1074 209.629 61.7988 206.699 64.5137C203.789 67.2285 199.805 68.5859 194.746 68.5859C189.766 68.5859 185.811 67.2676 182.881 64.6309C179.951 61.9941 178.457 58.3711 178.398 53.7617V25.3438H187.188V53.498C187.188 56.291 187.852 58.332 189.18 59.6211C190.527 60.8906 192.383 61.5254 194.746 61.5254C199.688 61.5254 202.197 58.9277 202.275 53.7324V25.3438H211.094ZM225.537 36.3008L225.801 39.9629C228.066 37.1309 231.104 35.7148 234.912 35.7148C238.271 35.7148 240.771 36.7012 242.412 38.6738C244.053 40.6465 244.893 43.5957 244.932 47.5215V68H236.465V47.7266C236.465 45.9297 236.074 44.6309 235.293 43.8301C234.512 43.0098 233.213 42.5996 231.396 42.5996C229.014 42.5996 227.227 43.6152 226.035 45.6465V68H217.568V36.3008H225.537ZM260.312 68H251.816V36.3008H260.312V68ZM251.318 28.0977C251.318 26.8281 251.738 25.7832 252.578 24.9629C253.438 24.1426 254.6 23.7324 256.064 23.7324C257.51 23.7324 258.662 24.1426 259.521 24.9629C260.381 25.7832 260.811 26.8281 260.811 28.0977C260.811 29.3867 260.371 30.4414 259.492 31.2617C258.633 32.082 257.49 32.4922 256.064 32.4922C254.639 32.4922 253.486 32.082 252.607 31.2617C251.748 30.4414 251.318 29.3867 251.318 28.0977ZM284.482 59.2402C284.482 58.2051 283.965 57.3945 282.93 56.8086C281.914 56.2031 280.273 55.666 278.008 55.1973C270.469 53.6152 266.699 50.4121 266.699 45.5879C266.699 42.7754 267.861 40.4316 270.186 38.5566C272.529 36.6621 275.586 35.7148 279.355 35.7148C283.379 35.7148 286.592 36.6621 288.994 38.5566C291.416 40.4512 292.627 42.9121 292.627 45.9395H284.16C284.16 44.7285 283.77 43.7324 282.988 42.9512C282.207 42.1504 280.986 41.75 279.326 41.75C277.9 41.75 276.797 42.0723 276.016 42.7168C275.234 43.3613 274.844 44.1816 274.844 45.1777C274.844 46.1152 275.283 46.877 276.162 47.4629C277.061 48.0293 278.564 48.5273 280.674 48.957C282.783 49.3672 284.561 49.8359 286.006 50.3633C290.479 52.0039 292.715 54.8457 292.715 58.8887C292.715 61.7793 291.475 64.123 288.994 65.9199C286.514 67.6973 283.311 68.5859 279.385 68.5859C276.729 68.5859 274.365 68.1172 272.295 67.1797C270.244 66.2227 268.633 64.9238 267.461 63.2832C266.289 61.623 265.703 59.8359 265.703 57.9219H273.73C273.809 59.4258 274.365 60.5781 275.4 61.3789C276.436 62.1797 277.822 62.5801 279.561 62.5801C281.182 62.5801 282.402 62.2773 283.223 61.6719C284.062 61.0469 284.482 60.2363 284.482 59.2402ZM311.377 61.7598C312.939 61.7598 314.209 61.3301 315.186 60.4707C316.162 59.6113 316.67 58.4688 316.709 57.043H324.648C324.629 59.1914 324.043 61.1641 322.891 62.9609C321.738 64.7383 320.156 66.125 318.145 67.1211C316.152 68.0977 313.945 68.5859 311.523 68.5859C306.992 68.5859 303.418 67.1504 300.801 64.2793C298.184 61.3887 296.875 57.4043 296.875 52.3262V51.7695C296.875 46.8867 298.174 42.9902 300.771 40.0801C303.369 37.1699 306.934 35.7148 311.465 35.7148C315.43 35.7148 318.604 36.8477 320.986 39.1133C323.389 41.3594 324.609 44.3574 324.648 48.1074H316.709C316.67 46.4668 316.162 45.1387 315.186 44.123C314.209 43.0879 312.92 42.5703 311.318 42.5703C309.346 42.5703 307.852 43.293 306.836 44.7383C305.84 46.1641 305.342 48.4883 305.342 51.7109V52.5898C305.342 55.8516 305.84 58.1953 306.836 59.6211C307.832 61.0469 309.346 61.7598 311.377 61.7598ZM338.418 68H329.922V36.3008H338.418V68ZM329.424 28.0977C329.424 26.8281 329.844 25.7832 330.684 24.9629C331.543 24.1426 332.705 23.7324 334.17 23.7324C335.615 23.7324 336.768 24.1426 337.627 24.9629C338.486 25.7832 338.916 26.8281 338.916 28.0977C338.916 29.3867 338.477 30.4414 337.598 31.2617C336.738 32.082 335.596 32.4922 334.17 32.4922C332.744 32.4922 331.592 32.082 330.713 31.2617C329.854 30.4414 329.424 29.3867 329.424 28.0977ZM355.557 28.5078V36.3008H360.977V42.5117H355.557V58.332C355.557 59.5039 355.781 60.3438 356.23 60.8516C356.68 61.3594 357.539 61.6133 358.809 61.6133C359.746 61.6133 360.576 61.5449 361.299 61.4082V67.8242C359.639 68.332 357.93 68.5859 356.172 68.5859C350.234 68.5859 347.207 65.5879 347.09 59.5918V42.5117H342.461V36.3008H347.09V28.5078H355.557ZM374.629 68H366.133V36.3008H374.629V68ZM365.635 28.0977C365.635 26.8281 366.055 25.7832 366.895 24.9629C367.754 24.1426 368.916 23.7324 370.381 23.7324C371.826 23.7324 372.979 24.1426 373.838 24.9629C374.697 25.7832 375.127 26.8281 375.127 28.0977C375.127 29.3867 374.688 30.4414 373.809 31.2617C372.949 32.082 371.807 32.4922 370.381 32.4922C368.955 32.4922 367.803 32.082 366.924 31.2617C366.064 30.4414 365.635 29.3867 365.635 28.0977ZM414.941 68C414.551 67.2383 414.268 66.291 414.092 65.1582C412.041 67.4434 409.375 68.5859 406.094 68.5859C402.988 68.5859 400.41 67.6875 398.359 65.8906C396.328 64.0938 395.312 61.8281 395.312 59.0938C395.312 55.7344 396.553 53.1562 399.033 51.3594C401.533 49.5625 405.137 48.6543 409.844 48.6348H413.74V46.8184C413.74 45.3535 413.359 44.1816 412.598 43.3027C411.855 42.4238 410.674 41.9844 409.053 41.9844C407.627 41.9844 406.504 42.3262 405.684 43.0098C404.883 43.6934 404.482 44.6309 404.482 45.8223H396.016C396.016 43.9863 396.582 42.2871 397.715 40.7246C398.848 39.1621 400.449 37.9414 402.52 37.0625C404.59 36.1641 406.914 35.7148 409.492 35.7148C413.398 35.7148 416.494 36.7012 418.779 38.6738C421.084 40.627 422.236 43.3809 422.236 46.9355V60.6758C422.256 63.6836 422.676 65.959 423.496 67.502V68H414.941ZM407.939 62.1113C409.189 62.1113 410.342 61.8379 411.396 61.291C412.451 60.7246 413.232 59.9727 413.74 59.0352V53.5859H410.576C406.338 53.5859 404.082 55.0508 403.809 57.9805L403.779 58.4785C403.779 59.5332 404.15 60.4023 404.893 61.0859C405.635 61.7695 406.65 62.1113 407.939 62.1113ZM437.676 68H429.18V23H437.676V68ZM467.412 36.3008L467.676 39.9629C469.941 37.1309 472.979 35.7148 476.787 35.7148C480.146 35.7148 482.646 36.7012 484.287 38.6738C485.928 40.6465 486.768 43.5957 486.807 47.5215V68H478.34V47.7266C478.34 45.9297 477.949 44.6309 477.168 43.8301C476.387 43.0098 475.088 42.5996 473.271 42.5996C470.889 42.5996 469.102 43.6152 467.91 45.6465V68H459.443V36.3008H467.412ZM491.934 51.8574C491.934 48.7129 492.539 45.9102 493.75 43.4492C494.961 40.9883 496.699 39.084 498.965 37.7363C501.25 36.3887 503.896 35.7148 506.904 35.7148C511.182 35.7148 514.668 37.0234 517.363 39.6406C520.078 42.2578 521.592 45.8125 521.904 50.3047L521.963 52.4727C521.963 57.3359 520.605 61.2422 517.891 64.1914C515.176 67.1211 511.533 68.5859 506.963 68.5859C502.393 68.5859 498.74 67.1211 496.006 64.1914C493.291 61.2617 491.934 57.2773 491.934 52.2383V51.8574ZM500.4 52.4727C500.4 55.4805 500.967 57.7852 502.1 59.3867C503.232 60.9688 504.854 61.7598 506.963 61.7598C509.014 61.7598 510.615 60.9785 511.768 59.416C512.92 57.834 513.496 55.3145 513.496 51.8574C513.496 48.9082 512.92 46.623 511.768 45.002C510.615 43.3809 508.994 42.5703 506.904 42.5703C504.834 42.5703 503.232 43.3809 502.1 45.002C500.967 46.6035 500.4 49.0938 500.4 52.4727ZM544.346 59.2402C544.346 58.2051 543.828 57.3945 542.793 56.8086C541.777 56.2031 540.137 55.666 537.871 55.1973C530.332 53.6152 526.562 50.4121 526.562 45.5879C526.562 42.7754 527.725 40.4316 530.049 38.5566C532.393 36.6621 535.449 35.7148 539.219 35.7148C543.242 35.7148 546.455 36.6621 548.857 38.5566C551.279 40.4512 552.49 42.9121 552.49 45.9395H544.023C544.023 44.7285 543.633 43.7324 542.852 42.9512C542.07 42.1504 540.85 41.75 539.189 41.75C537.764 41.75 536.66 42.0723 535.879 42.7168C535.098 43.3613 534.707 44.1816 534.707 45.1777C534.707 46.1152 535.146 46.877 536.025 47.4629C536.924 48.0293 538.428 48.5273 540.537 48.957C542.646 49.3672 544.424 49.8359 545.869 50.3633C550.342 52.0039 552.578 54.8457 552.578 58.8887C552.578 61.7793 551.338 64.123 548.857 65.9199C546.377 67.6973 543.174 68.5859 539.248 68.5859C536.592 68.5859 534.229 68.1172 532.158 67.1797C530.107 66.2227 528.496 64.9238 527.324 63.2832C526.152 61.623 525.566 59.8359 525.566 57.9219H533.594C533.672 59.4258 534.229 60.5781 535.264 61.3789C536.299 62.1797 537.686 62.5801 539.424 62.5801C541.045 62.5801 542.266 62.2773 543.086 61.6719C543.926 61.0469 544.346 60.2363 544.346 59.2402ZM568.193 28.5078V36.3008H573.613V42.5117H568.193V58.332C568.193 59.5039 568.418 60.3438 568.867 60.8516C569.316 61.3594 570.176 61.6133 571.445 61.6133C572.383 61.6133 573.213 61.5449 573.936 61.4082V67.8242C572.275 68.332 570.566 68.5859 568.809 68.5859C562.871 68.5859 559.844 65.5879 559.727 59.5918V42.5117H555.098V36.3008H559.727V28.5078H568.193ZM596.143 44.2402C594.99 44.084 593.975 44.0059 593.096 44.0059C589.893 44.0059 587.793 45.0898 586.797 47.2578V68H578.33V36.3008H586.328L586.562 40.0801C588.262 37.1699 590.615 35.7148 593.623 35.7148C594.561 35.7148 595.439 35.8418 596.26 36.0957L596.143 44.2402ZM597.871 51.8574C597.871 48.7129 598.477 45.9102 599.688 43.4492C600.898 40.9883 602.637 39.084 604.902 37.7363C607.188 36.3887 609.834 35.7148 612.842 35.7148C617.119 35.7148 620.605 37.0234 623.301 39.6406C626.016 42.2578 627.529 45.8125 627.842 50.3047L627.9 52.4727C627.9 57.3359 626.543 61.2422 623.828 64.1914C621.113 67.1211 617.471 68.5859 612.9 68.5859C608.33 68.5859 604.678 67.1211 601.943 64.1914C599.229 61.2617 597.871 57.2773 597.871 52.2383V51.8574ZM606.338 52.4727C606.338 55.4805 606.904 57.7852 608.037 59.3867C609.17 60.9688 610.791 61.7598 612.9 61.7598C614.951 61.7598 616.553 60.9785 617.705 59.416C618.857 57.834 619.434 55.3145 619.434 51.8574C619.434 48.9082 618.857 46.623 617.705 45.002C616.553 43.3809 614.932 42.5703 612.842 42.5703C610.771 42.5703 609.17 43.3809 608.037 45.002C606.904 46.6035 606.338 49.0938 606.338 52.4727Z" fill="#39B6E4"/>
<path d="M177.021 107.916C177.021 103.053 178.174 99.1367 180.479 96.168C182.803 93.1992 185.928 91.7148 189.854 91.7148C193.33 91.7148 196.035 92.9062 197.969 95.2891L198.32 92.3008H205.996V122.945C205.996 125.719 205.361 128.131 204.092 130.182C202.842 132.232 201.074 133.795 198.789 134.869C196.504 135.943 193.828 136.48 190.762 136.48C188.438 136.48 186.172 136.012 183.965 135.074C181.758 134.156 180.088 132.965 178.955 131.5L182.705 126.344C184.814 128.707 187.373 129.889 190.381 129.889C192.627 129.889 194.375 129.283 195.625 128.072C196.875 126.881 197.5 125.182 197.5 122.975V121.275C195.547 123.482 192.979 124.586 189.795 124.586C185.986 124.586 182.9 123.102 180.537 120.133C178.193 117.145 177.021 113.189 177.021 108.268V107.916ZM185.488 108.531C185.488 111.402 186.064 113.658 187.217 115.299C188.369 116.92 189.951 117.73 191.963 117.73C194.541 117.73 196.387 116.764 197.5 114.83V101.5C196.367 99.5664 194.541 98.5996 192.021 98.5996C189.99 98.5996 188.389 99.4297 187.217 101.09C186.064 102.75 185.488 105.23 185.488 108.531ZM230.342 100.24C229.189 100.084 228.174 100.006 227.295 100.006C224.092 100.006 221.992 101.09 220.996 103.258V124H212.529V92.3008H220.527L220.762 96.0801C222.461 93.1699 224.814 91.7148 227.822 91.7148C228.76 91.7148 229.639 91.8418 230.459 92.0957L230.342 100.24ZM253.428 120.777C251.338 123.316 248.447 124.586 244.756 124.586C241.357 124.586 238.76 123.609 236.963 121.656C235.186 119.703 234.277 116.842 234.238 113.072V92.3008H242.705V112.779C242.705 116.08 244.209 117.73 247.217 117.73C250.088 117.73 252.061 116.734 253.135 114.742V92.3008H261.631V124H253.662L253.428 120.777ZM296.553 108.443C296.553 113.326 295.439 117.242 293.213 120.191C291.006 123.121 288.018 124.586 284.248 124.586C281.045 124.586 278.457 123.473 276.484 121.246V136.188H268.018V92.3008H275.869L276.162 95.4062C278.213 92.9453 280.889 91.7148 284.189 91.7148C288.096 91.7148 291.133 93.1602 293.301 96.0508C295.469 98.9414 296.553 102.926 296.553 108.004V108.443ZM288.086 107.828C288.086 104.879 287.559 102.604 286.504 101.002C285.469 99.4004 283.955 98.5996 281.963 98.5996C279.307 98.5996 277.48 99.6152 276.484 101.646V114.625C277.52 116.715 279.365 117.76 282.021 117.76C286.064 117.76 288.086 114.449 288.086 107.828ZM330.361 108.443C330.361 113.326 329.248 117.242 327.021 120.191C324.814 123.121 321.826 124.586 318.057 124.586C314.854 124.586 312.266 123.473 310.293 121.246V136.188H301.826V92.3008H309.678L309.971 95.4062C312.021 92.9453 314.697 91.7148 317.998 91.7148C321.904 91.7148 324.941 93.1602 327.109 96.0508C329.277 98.9414 330.361 102.926 330.361 108.004V108.443ZM321.895 107.828C321.895 104.879 321.367 102.604 320.312 101.002C319.277 99.4004 317.764 98.5996 315.771 98.5996C313.115 98.5996 311.289 99.6152 310.293 101.646V114.625C311.328 116.715 313.174 117.76 315.83 117.76C319.873 117.76 321.895 114.449 321.895 107.828ZM334.316 107.857C334.316 104.713 334.922 101.91 336.133 99.4492C337.344 96.9883 339.082 95.084 341.348 93.7363C343.633 92.3887 346.279 91.7148 349.287 91.7148C353.564 91.7148 357.051 93.0234 359.746 95.6406C362.461 98.2578 363.975 101.812 364.287 106.305L364.346 108.473C364.346 113.336 362.988 117.242 360.273 120.191C357.559 123.121 353.916 124.586 349.346 124.586C344.775 124.586 341.123 123.121 338.389 120.191C335.674 117.262 334.316 113.277 334.316 108.238V107.857ZM342.783 108.473C342.783 111.48 343.35 113.785 344.482 115.387C345.615 116.969 347.236 117.76 349.346 117.76C351.396 117.76 352.998 116.979 354.15 115.416C355.303 113.834 355.879 111.314 355.879 107.857C355.879 104.908 355.303 102.623 354.15 101.002C352.998 99.3809 351.377 98.5703 349.287 98.5703C347.217 98.5703 345.615 99.3809 344.482 101.002C343.35 102.604 342.783 105.094 342.783 108.473ZM415.41 88.4629H402.344V124H393.555V88.4629H380.664V81.3438H415.41V88.4629ZM431.846 124.586C427.197 124.586 423.408 123.16 420.479 120.309C417.568 117.457 416.113 113.658 416.113 108.912V108.092C416.113 104.908 416.729 102.066 417.959 99.5664C419.189 97.0469 420.928 95.1133 423.174 93.7656C425.439 92.3984 428.018 91.7148 430.908 91.7148C435.244 91.7148 438.652 93.082 441.133 95.8164C443.633 98.5508 444.883 102.428 444.883 107.447V110.904H424.697C424.971 112.975 425.791 114.635 427.158 115.885C428.545 117.135 430.293 117.76 432.402 117.76C435.664 117.76 438.213 116.578 440.049 114.215L444.209 118.873C442.939 120.67 441.221 122.076 439.053 123.092C436.885 124.088 434.482 124.586 431.846 124.586ZM430.879 98.5703C429.199 98.5703 427.832 99.1367 426.777 100.27C425.742 101.402 425.078 103.023 424.785 105.133H436.562V104.459C436.523 102.584 436.016 101.139 435.039 100.123C434.062 99.0879 432.676 98.5703 430.879 98.5703ZM458.652 124H450.156V79H458.652V124ZM480.244 124.586C475.596 124.586 471.807 123.16 468.877 120.309C465.967 117.457 464.512 113.658 464.512 108.912V108.092C464.512 104.908 465.127 102.066 466.357 99.5664C467.588 97.0469 469.326 95.1133 471.572 93.7656C473.838 92.3984 476.416 91.7148 479.307 91.7148C483.643 91.7148 487.051 93.082 489.531 95.8164C492.031 98.5508 493.281 102.428 493.281 107.447V110.904H473.096C473.369 112.975 474.189 114.635 475.557 115.885C476.943 117.135 478.691 117.76 480.801 117.76C484.062 117.76 486.611 116.578 488.447 114.215L492.607 118.873C491.338 120.67 489.619 122.076 487.451 123.092C485.283 124.088 482.881 124.586 480.244 124.586ZM479.277 98.5703C477.598 98.5703 476.23 99.1367 475.176 100.27C474.141 101.402 473.477 103.023 473.184 105.133H484.961V104.459C484.922 102.584 484.414 101.139 483.438 100.123C482.461 99.0879 481.074 98.5703 479.277 98.5703ZM496.885 107.916C496.885 103.053 498.037 99.1367 500.342 96.168C502.666 93.1992 505.791 91.7148 509.717 91.7148C513.193 91.7148 515.898 92.9062 517.832 95.2891L518.184 92.3008H525.859V122.945C525.859 125.719 525.225 128.131 523.955 130.182C522.705 132.232 520.938 133.795 518.652 134.869C516.367 135.943 513.691 136.48 510.625 136.48C508.301 136.48 506.035 136.012 503.828 135.074C501.621 134.156 499.951 132.965 498.818 131.5L502.568 126.344C504.678 128.707 507.236 129.889 510.244 129.889C512.49 129.889 514.238 129.283 515.488 128.072C516.738 126.881 517.363 125.182 517.363 122.975V121.275C515.41 123.482 512.842 124.586 509.658 124.586C505.85 124.586 502.764 123.102 500.4 120.133C498.057 117.145 496.885 113.189 496.885 108.268V107.916ZM505.352 108.531C505.352 111.402 505.928 113.658 507.08 115.299C508.232 116.92 509.814 117.73 511.826 117.73C514.404 117.73 516.25 116.764 517.363 114.83V101.5C516.23 99.5664 514.404 98.5996 511.885 98.5996C509.854 98.5996 508.252 99.4297 507.08 101.09C505.928 102.75 505.352 105.23 505.352 108.531ZM550.205 100.24C549.053 100.084 548.037 100.006 547.158 100.006C543.955 100.006 541.855 101.09 540.859 103.258V124H532.393V92.3008H540.391L540.625 96.0801C542.324 93.1699 544.678 91.7148 547.686 91.7148C548.623 91.7148 549.502 91.8418 550.322 92.0957L550.205 100.24ZM571.797 124C571.406 123.238 571.123 122.291 570.947 121.158C568.896 123.443 566.23 124.586 562.949 124.586C559.844 124.586 557.266 123.688 555.215 121.891C553.184 120.094 552.168 117.828 552.168 115.094C552.168 111.734 553.408 109.156 555.889 107.359C558.389 105.562 561.992 104.654 566.699 104.635H570.596V102.818C570.596 101.354 570.215 100.182 569.453 99.3027C568.711 98.4238 567.529 97.9844 565.908 97.9844C564.482 97.9844 563.359 98.3262 562.539 99.0098C561.738 99.6934 561.338 100.631 561.338 101.822H552.871C552.871 99.9863 553.438 98.2871 554.57 96.7246C555.703 95.1621 557.305 93.9414 559.375 93.0625C561.445 92.1641 563.77 91.7148 566.348 91.7148C570.254 91.7148 573.35 92.7012 575.635 94.6738C577.939 96.627 579.092 99.3809 579.092 102.936V116.676C579.111 119.684 579.531 121.959 580.352 123.502V124H571.797ZM564.795 118.111C566.045 118.111 567.197 117.838 568.252 117.291C569.307 116.725 570.088 115.973 570.596 115.035V109.586H567.432C563.193 109.586 560.938 111.051 560.664 113.98L560.635 114.479C560.635 115.533 561.006 116.402 561.748 117.086C562.49 117.77 563.506 118.111 564.795 118.111ZM593.535 92.3008L593.799 95.8457C596.045 93.0918 599.082 91.7148 602.91 91.7148C606.992 91.7148 609.795 93.3262 611.318 96.5488C613.545 93.3262 616.719 91.7148 620.84 91.7148C624.277 91.7148 626.836 92.7207 628.516 94.7324C630.195 96.7246 631.035 99.7324 631.035 103.756V124H622.539V103.785C622.539 101.988 622.188 100.68 621.484 99.8594C620.781 99.0195 619.541 98.5996 617.764 98.5996C615.225 98.5996 613.467 99.8105 612.49 102.232L612.52 124H604.053V103.814C604.053 101.979 603.691 100.65 602.969 99.8301C602.246 99.0098 601.016 98.5996 599.277 98.5996C596.875 98.5996 595.137 99.5957 594.062 101.588V124H585.596V92.3008H593.535Z" fill="black"/>
<defs>
<linearGradient id="paint0_linear" x1="99.6542" y1="45.8042" x2="74.6542" y2="104.137" gradientUnits="userSpaceOnUse">
<stop stop-color="#37AEE2"/>
<stop offset="1" stop-color="#1E96C8"/>
</linearGradient>
<linearGradient id="paint1_linear" x1="88.7462" y1="81.5646" x2="99.1629" y2="98.2313" gradientUnits="userSpaceOnUse">
<stop stop-color="#EFF7FC"/>
<stop offset="1" stop-color="white"/>
</linearGradient>
</defs>
</svg>
